<svg width="64" height="24" viewBox="0 0 64 24" fill="none" xmlns="http://www.w3.org/2000/svg">
<rect width="64" height="24" rx="12" fill="#D0E6FF"/>
<path d="M10.96 17V8.624H16.312V10.1H12.76V12.02H16.192V13.496H12.76V15.524H16.312V17H10.96ZM22.0313 15.872H21.9473C21.7873 16.248 21.5633 16.556 21.2753 16.796C20.9953 17.028 20.6073 17.144 20.1113 17.144C19.7673 17.144 19.4513 17.08 19.1633 16.952C18.8833 16.824 18.6393 16.628 18.4313 16.364C18.2313 16.1 18.0713 15.764 17.9513 15.356C17.8393 14.948 17.7833 14.464 17.7833 13.904C17.7833 13.344 17.8393 12.86 17.9513 12.452C18.0713 12.044 18.2313 11.708 18.4313 11.444C18.6393 11.18 18.8833 10.984 19.1633 10.856C19.4513 10.728 19.7673 10.664 20.1113 10.664C20.3593 10.664 20.5793 10.696 20.7713 10.76C20.9633 10.824 21.1313 10.912 21.2753 11.024C21.4273 11.136 21.5553 11.272 21.6593 11.432C21.7713 11.584 21.8673 11.752 21.9473 11.936H22.0313V8.12H23.8073V17H22.0313V15.872ZM20.8793 15.764C21.1913 15.764 21.4593 15.688 21.6833 15.536C21.9153 15.384 22.0313 15.144 22.0313 14.816V12.992C22.0313 12.664 21.9153 12.424 21.6833 12.272C21.4593 12.12 21.1913 12.044 20.8793 12.044C20.4793 12.044 20.1713 12.168 19.9553 12.416C19.7393 12.656 19.6313 12.992 19.6313 13.424V14.384C19.6313 14.816 19.7393 15.156 19.9553 15.404C20.1713 15.644 20.4793 15.764 20.8793 15.764ZM29.1306 10.1V17H27.3306V10.1H24.9186V8.624H31.5426V10.1H29.1306ZM35.7139 17.144C34.6739 17.144 33.8859 16.856 33.3499 16.28C32.8139 15.704 32.5459 14.92 32.5459 13.928C32.5459 13.424 32.6139 12.972 32.7499 12.572C32.8939 12.164 33.0939 11.82 33.3499 11.54C33.6139 11.252 33.9299 11.036 34.2979 10.892C34.6739 10.74 35.0939 10.664 35.5579 10.664C36.0219 10.664 36.4379 10.74 36.8059 10.892C37.1739 11.036 37.4859 11.244 37.7419 11.516C37.9979 11.788 38.1939 12.12 38.3299 12.512C38.4739 12.896 38.5459 13.328 38.5459 13.808V14.336H34.3099V14.444C34.3099 14.844 34.4339 15.168 34.6819 15.416C34.9299 15.656 35.2939 15.776 35.7739 15.776C36.1419 15.776 36.4579 15.708 36.7219 15.572C36.9859 15.428 37.2139 15.24 37.4059 15.008L38.3659 16.052C38.1259 16.348 37.7899 16.604 37.3579 16.82C36.9259 17.036 36.3779 17.144 35.7139 17.144ZM35.5699 11.936C35.1859 11.936 34.8779 12.056 34.6459 12.296C34.4219 12.528 34.3099 12.844 34.3099 13.244V13.34H36.8059V13.244C36.8059 12.836 36.6939 12.516 36.4699 12.284C36.2539 12.052 35.9539 11.936 35.5699 11.936ZM43.1132 17.144C42.6252 17.144 42.1852 17.072 41.7932 16.928C41.4092 16.776 41.0812 16.56 40.8092 16.28C40.5452 16 40.3412 15.66 40.1972 15.26C40.0532 14.86 39.9812 14.408 39.9812 13.904C39.9812 13.4 40.0532 12.948 40.1972 12.548C40.3412 12.148 40.5452 11.808 40.8092 11.528C41.0812 11.248 41.4092 11.036 41.7932 10.892C42.1852 10.74 42.6212 10.664 43.1012 10.664C43.7812 10.664 44.3252 10.804 44.7332 11.084C45.1492 11.356 45.4652 11.72 45.6812 12.176L44.3132 12.92C44.2012 12.68 44.0532 12.48 43.8692 12.32C43.6932 12.16 43.4372 12.08 43.1012 12.08C42.6932 12.08 42.3772 12.2 42.1532 12.44C41.9372 12.672 41.8292 12.992 41.8292 13.4V14.408C41.8292 14.816 41.9372 15.14 42.1532 15.38C42.3772 15.612 42.7012 15.728 43.1252 15.728C43.4692 15.728 43.7372 15.648 43.9292 15.488C44.1292 15.328 44.2972 15.12 44.4332 14.864L45.7773 15.632C45.5533 16.088 45.2253 16.456 44.7932 16.736C44.3692 17.008 43.8092 17.144 43.1132 17.144ZM47.3566 8.12H49.1326V11.936H49.2046C49.2766 11.76 49.3646 11.596 49.4686 11.444C49.5726 11.292 49.6966 11.16 49.8406 11.048C49.9926 10.928 50.1646 10.836 50.3566 10.772C50.5566 10.7 50.7806 10.664 51.0286 10.664C51.3246 10.664 51.5966 10.716 51.8446 10.82C52.0926 10.916 52.3046 11.064 52.4806 11.264C52.6566 11.464 52.7926 11.708 52.8886 11.996C52.9926 12.284 53.0446 12.616 53.0446 12.992V17H51.2686V13.232C51.2686 12.432 50.9206 12.032 50.2246 12.032C50.0886 12.032 49.9526 12.052 49.8166 12.092C49.6886 12.124 49.5726 12.18 49.4686 12.26C49.3646 12.332 49.2806 12.424 49.2166 12.536C49.1606 12.648 49.1326 12.78 49.1326 12.932V17H47.3566V8.12Z" fill="#000AFF"/>
</svg>
