<svg width="72" height="24" viewBox="0 0 72 24" fill="none" xmlns="http://www.w3.org/2000/svg">
<rect width="72" height="24" rx="12" fill="#FFF6E9"/>
<path d="M10.96 17V8.624H16.516V10.1H12.76V12.02H16.12V13.496H12.76V17H10.96ZM21.2993 10.016C20.8993 10.016 20.6193 9.936 20.4593 9.776C20.3073 9.608 20.2313 9.408 20.2313 9.176V8.828C20.2313 8.588 20.3073 8.388 20.4593 8.228C20.6193 8.068 20.8993 7.988 21.2993 7.988C21.6993 7.988 21.9753 8.068 22.1273 8.228C22.2873 8.388 22.3673 8.588 22.3673 8.828V9.176C22.3673 9.408 22.2873 9.608 22.1273 9.776C21.9753 9.936 21.6993 10.016 21.2993 10.016ZM18.4433 15.62H20.4113V12.188H18.4433V10.808H22.1873V15.62H24.0113V17H18.4433V15.62ZM25.4106 17V10.808H27.1866V11.936H27.2586C27.3306 11.76 27.4186 11.596 27.5226 11.444C27.6266 11.292 27.7506 11.16 27.8946 11.048C28.0466 10.928 28.2186 10.836 28.4106 10.772C28.6106 10.7 28.8346 10.664 29.0826 10.664C29.3786 10.664 29.6506 10.716 29.8986 10.82C30.1466 10.916 30.3586 11.064 30.5346 11.264C30.7106 11.464 30.8466 11.708 30.9426 11.996C31.0466 12.284 31.0986 12.616 31.0986 12.992V17H29.3226V13.232C29.3226 12.432 28.9746 12.032 28.2786 12.032C28.1426 12.032 28.0066 12.052 27.8706 12.092C27.7426 12.124 27.6266 12.18 27.5226 12.26C27.4186 12.332 27.3346 12.424 27.2706 12.536C27.2146 12.648 27.1866 12.78 27.1866 12.932V17H25.4106ZM36.0259 17C35.3859 17 34.9099 16.832 34.5979 16.496C34.2859 16.16 34.1299 15.732 34.1299 15.212V12.188H32.4499V10.808H33.5419C33.8059 10.808 33.9939 10.756 34.1059 10.652C34.2179 10.548 34.2739 10.356 34.2739 10.076V8.624H35.9059V10.808H38.3179V12.188H35.9059V15.62H38.3179V17H36.0259ZM43.0292 17.144C41.9892 17.144 41.2012 16.856 40.6652 16.28C40.1292 15.704 39.8612 14.92 39.8612 13.928C39.8612 13.424 39.9292 12.972 40.0652 12.572C40.2092 12.164 40.4092 11.82 40.6652 11.54C40.9292 11.252 41.2452 11.036 41.6132 10.892C41.9892 10.74 42.4092 10.664 42.8732 10.664C43.3372 10.664 43.7532 10.74 44.1212 10.892C44.4892 11.036 44.8012 11.244 45.0572 11.516C45.3132 11.788 45.5092 12.12 45.6452 12.512C45.7892 12.896 45.8612 13.328 45.8612 13.808V14.336H41.6252V14.444C41.6252 14.844 41.7492 15.168 41.9972 15.416C42.2452 15.656 42.6092 15.776 43.0892 15.776C43.4572 15.776 43.7732 15.708 44.0372 15.572C44.3012 15.428 44.5292 15.24 44.7212 15.008L45.6812 16.052C45.4412 16.348 45.1052 16.604 44.6732 16.82C44.2412 17.036 43.6932 17.144 43.0292 17.144ZM42.8852 11.936C42.5012 11.936 42.1932 12.056 41.9612 12.296C41.7372 12.528 41.6252 12.844 41.6252 13.244V13.34H44.1212V13.244C44.1212 12.836 44.0092 12.516 43.7852 12.284C43.5692 12.052 43.2692 11.936 42.8852 11.936ZM50.4286 17.144C49.9406 17.144 49.5006 17.072 49.1086 16.928C48.7246 16.776 48.3966 16.56 48.1246 16.28C47.8606 16 47.6566 15.66 47.5126 15.26C47.3686 14.86 47.2966 14.408 47.2966 13.904C47.2966 13.4 47.3686 12.948 47.5126 12.548C47.6566 12.148 47.8606 11.808 48.1246 11.528C48.3966 11.248 48.7246 11.036 49.1086 10.892C49.5006 10.74 49.9366 10.664 50.4166 10.664C51.0966 10.664 51.6406 10.804 52.0486 11.084C52.4646 11.356 52.7806 11.72 52.9966 12.176L51.6286 12.92C51.5166 12.68 51.3686 12.48 51.1846 12.32C51.0086 12.16 50.7526 12.08 50.4166 12.08C50.0086 12.08 49.6926 12.2 49.4686 12.44C49.2526 12.672 49.1446 12.992 49.1446 13.4V14.408C49.1446 14.816 49.2526 15.14 49.4686 15.38C49.6926 15.612 50.0166 15.728 50.4406 15.728C50.7846 15.728 51.0526 15.648 51.2446 15.488C51.4446 15.328 51.6126 15.12 51.7486 14.864L53.0926 15.632C52.8686 16.088 52.5406 16.456 52.1086 16.736C51.6846 17.008 51.1246 17.144 50.4286 17.144ZM54.6719 8.12H56.4479V11.936H56.5199C56.5919 11.76 56.6799 11.596 56.7839 11.444C56.8879 11.292 57.0119 11.16 57.1559 11.048C57.3079 10.928 57.4799 10.836 57.6719 10.772C57.8719 10.7 58.0959 10.664 58.3439 10.664C58.6399 10.664 58.9119 10.716 59.1599 10.82C59.4079 10.916 59.6199 11.064 59.7959 11.264C59.9719 11.464 60.1079 11.708 60.2039 11.996C60.3079 12.284 60.3599 12.616 60.3599 12.992V17H58.5839V13.232C58.5839 12.432 58.2359 12.032 57.5399 12.032C57.4039 12.032 57.2679 12.052 57.1319 12.092C57.0039 12.124 56.8879 12.18 56.7839 12.26C56.6799 12.332 56.5959 12.424 56.5319 12.536C56.4759 12.648 56.4479 12.78 56.4479 12.932V17H54.6719V8.12Z" fill="#FFA217"/>
</svg>
