<svg width="64" height="24" viewBox="0 0 64 24" fill="none" xmlns="http://www.w3.org/2000/svg">
<rect width="64" height="24" rx="12" fill="#E0FFF8"/>
<path d="M10.912 17V8.624H14.152C14.56 8.624 14.924 8.688 15.244 8.816C15.564 8.936 15.832 9.112 16.048 9.344C16.272 9.576 16.44 9.856 16.552 10.184C16.664 10.512 16.72 10.88 16.72 11.288C16.72 11.696 16.664 12.064 16.552 12.392C16.44 12.72 16.272 13 16.048 13.232C15.832 13.464 15.564 13.644 15.244 13.772C14.924 13.892 14.56 13.952 14.152 13.952H12.724V17H10.912ZM12.724 12.5H13.696C14.12 12.5 14.412 12.42 14.572 12.26C14.74 12.1 14.824 11.836 14.824 11.468V11.108C14.824 10.74 14.74 10.476 14.572 10.316C14.412 10.156 14.12 10.076 13.696 10.076H12.724V12.5ZM18.0953 8.12H19.8713V11.936H19.9433C20.0153 11.76 20.1033 11.596 20.2073 11.444C20.3113 11.292 20.4353 11.16 20.5793 11.048C20.7313 10.928 20.9033 10.836 21.0953 10.772C21.2953 10.7 21.5193 10.664 21.7673 10.664C22.0633 10.664 22.3353 10.716 22.5833 10.82C22.8313 10.916 23.0433 11.064 23.2193 11.264C23.3953 11.464 23.5313 11.708 23.6273 11.996C23.7313 12.284 23.7833 12.616 23.7833 12.992V17H22.0073V13.232C22.0073 12.432 21.6593 12.032 20.9633 12.032C20.8273 12.032 20.6913 12.052 20.5553 12.092C20.4273 12.124 20.3113 12.18 20.2073 12.26C20.1033 12.332 20.0193 12.424 19.9553 12.536C19.8993 12.648 19.8713 12.78 19.8713 12.932V17H18.0953V8.12ZM30.4746 17C30.1066 17 29.8106 16.908 29.5866 16.724C29.3626 16.532 29.2306 16.26 29.1906 15.908H29.1306C29.0186 16.316 28.7946 16.624 28.4586 16.832C28.1306 17.04 27.7266 17.144 27.2466 17.144C26.6466 17.144 26.1626 16.984 25.7946 16.664C25.4346 16.336 25.2546 15.88 25.2546 15.296C25.2546 14.648 25.4906 14.168 25.9626 13.856C26.4346 13.544 27.1266 13.388 28.0386 13.388H29.0346V13.076C29.0346 12.708 28.9466 12.432 28.7706 12.248C28.6026 12.056 28.3146 11.96 27.9066 11.96C27.5306 11.96 27.2266 12.032 26.9946 12.176C26.7626 12.32 26.5626 12.508 26.3946 12.74L25.4226 11.876C25.6306 11.524 25.9546 11.236 26.3946 11.012C26.8426 10.78 27.4146 10.664 28.1106 10.664C28.9586 10.664 29.6186 10.86 30.0906 11.252C30.5706 11.636 30.8106 12.22 30.8106 13.004V15.716H31.4946V17H30.4746ZM27.9186 15.98C28.2306 15.98 28.4946 15.904 28.7106 15.752C28.9266 15.6 29.0346 15.38 29.0346 15.092V14.348H28.0866C27.3586 14.348 26.9946 14.592 26.9946 15.08V15.32C26.9946 15.536 27.0786 15.7 27.2466 15.812C27.4146 15.924 27.6386 15.98 27.9186 15.98ZM32.8339 15.62H34.2619V12.188H32.8339V10.808H36.0379V12.56H36.1219C36.1779 12.336 36.2539 12.12 36.3499 11.912C36.4539 11.696 36.5819 11.508 36.7339 11.348C36.8939 11.18 37.0859 11.048 37.3099 10.952C37.5339 10.856 37.7979 10.808 38.1019 10.808H38.6899V12.44H37.3699C36.9299 12.44 36.5979 12.572 36.3739 12.836C36.1499 13.092 36.0379 13.408 36.0379 13.784V15.62H38.0779V17H32.8339V15.62ZM39.6212 17V10.808H41.0492V11.72H41.1332C41.2292 11.432 41.3652 11.184 41.5412 10.976C41.7252 10.768 41.9812 10.664 42.3092 10.664C42.9092 10.664 43.2772 11.016 43.4132 11.72H43.4852C43.5332 11.576 43.5932 11.44 43.6652 11.312C43.7372 11.184 43.8252 11.072 43.9292 10.976C44.0332 10.88 44.1572 10.804 44.3012 10.748C44.4452 10.692 44.6132 10.664 44.8052 10.664C45.6693 10.664 46.1013 11.3 46.1013 12.572V17H44.6732V12.752C44.6732 12.464 44.6212 12.264 44.5172 12.152C44.4212 12.032 44.2932 11.972 44.1332 11.972C43.9812 11.972 43.8492 12.024 43.7372 12.128C43.6332 12.224 43.5812 12.376 43.5812 12.584V17H42.1412V12.752C42.1412 12.464 42.0932 12.264 41.9972 12.152C41.9092 12.032 41.7852 11.972 41.6252 11.972C41.4652 11.972 41.3292 12.024 41.2172 12.128C41.1052 12.224 41.0492 12.376 41.0492 12.584V17H39.6212ZM52.4206 17C52.0526 17 51.7566 16.908 51.5326 16.724C51.3086 16.532 51.1766 16.26 51.1366 15.908H51.0766C50.9646 16.316 50.7406 16.624 50.4046 16.832C50.0766 17.04 49.6726 17.144 49.1926 17.144C48.5926 17.144 48.1086 16.984 47.7406 16.664C47.3806 16.336 47.2006 15.88 47.2006 15.296C47.2006 14.648 47.4366 14.168 47.9086 13.856C48.3806 13.544 49.0726 13.388 49.9846 13.388H50.9806V13.076C50.9806 12.708 50.8926 12.432 50.7166 12.248C50.5486 12.056 50.2606 11.96 49.8526 11.96C49.4766 11.96 49.1726 12.032 48.9406 12.176C48.7086 12.32 48.5086 12.508 48.3406 12.74L47.3686 11.876C47.5766 11.524 47.9006 11.236 48.3406 11.012C48.7886 10.78 49.3606 10.664 50.0566 10.664C50.9046 10.664 51.5646 10.86 52.0366 11.252C52.5166 11.636 52.7566 12.22 52.7566 13.004V15.716H53.4406V17H52.4206ZM49.8646 15.98C50.1766 15.98 50.4406 15.904 50.6566 15.752C50.8726 15.6 50.9806 15.38 50.9806 15.092V14.348H50.0326C49.3046 14.348 48.9406 14.592 48.9406 15.08V15.32C48.9406 15.536 49.0246 15.7 49.1926 15.812C49.3606 15.924 49.5846 15.98 49.8646 15.98Z" fill="#2AB090"/>
</svg>
